<?xml version="1.0" standalone="no"?>
<!DOCTYPE svg PUBLIC "-//W3C//DTD SVG 20010904//EN"
 "http://www.w3.org/TR/2001/REC-SVG-20010904/DTD/svg10.dtd">
<svg version="1.0" xmlns="http://www.w3.org/2000/svg"
 width="798.000000pt" height="798.000000pt" viewBox="0 0 798.000000 798.000000"
 preserveAspectRatio="xMidYMid meet">
<metadata>
Created by potrace 1.14, written by Peter Selinger 2001-2017
</metadata>
<g transform="translate(0.000000,798.000000) scale(0.100000,-0.100000)"
fill="#000000" stroke="none">
<path d="M3798 7343 c-16 -2 -28 -9 -28 -14 0 -5 -7 -9 -15 -9 -19 0 -70 -50
-90 -91 -9 -16 -17 -50 -18 -74 -1 -25 -5 -45 -9 -45 -5 0 -8 4 -8 10 0 10
-47 38 -95 55 -65 24 -153 2 -212 -52 -7 -6 -24 -33 -38 -59 -20 -38 -24 -58
-21 -104 4 -57 22 -105 51 -133 16 -16 10 -24 -55 -67 -84 -56 -120 -92 -132
-132 -25 -87 -16 -155 28 -214 l23 -31 -22 -20 c-12 -11 -47 -36 -77 -55 -74
-48 -92 -70 -97 -118 -11 -94 93 -156 173 -103 22 14 23 13 29 -20 7 -37 6
-39 -90 -242 -65 -138 -69 -154 -50 -199 17 -41 46 -62 92 -69 53 -8 92 25
138 120 25 52 45 82 54 80 8 -1 34 -40 57 -86 40 -78 53 -95 78 -104 6 -2 -7
-38 -27 -80 -20 -42 -37 -85 -37 -96 0 -14 -10 -21 -37 -26 -78 -14 -143 -88
-161 -180 l-8 -39 -51 3 c-28 1 -69 -3 -92 -10 -47 -14 -107 -69 -127 -116
-12 -28 -20 -33 -47 -33 -40 0 -107 -30 -137 -61 -33 -35 -61 -102 -62 -152
-1 -47 28 -123 55 -146 16 -13 16 -15 0 -27 -26 -19 -27 -18 -46 25 -27 60
-78 107 -133 124 -149 44 -286 -60 -280 -214 2 -46 30 -116 55 -135 14 -11 8
-34 -10 -34 -6 0 -17 -6 -24 -12 -33 -29 -45 -38 -53 -38 -5 0 -17 -9 -27 -20
-10 -11 -23 -20 -29 -20 -18 0 -46 -55 -46 -90 0 -38 25 -84 55 -100 37 -20
92 -16 126 9 17 12 37 20 45 17 19 -7 17 -13 -111 -281 -31 -66 -59 -134 -60
-151 -7 -71 68 -133 136 -114 51 15 54 19 101 110 24 47 49 85 56 85 14 0 21
-12 67 -105 31 -62 61 -89 104 -95 45 -5 109 35 120 75 9 30 2 82 -13 106 -22
32 -20 49 8 63 13 7 39 44 60 86 36 73 36 74 65 64 21 -8 37 -26 58 -67 33
-68 55 -90 98 -98 41 -7 71 2 104 32 42 39 38 95 -16 204 -29 60 -42 98 -38
111 11 32 28 17 65 -57 19 -39 42 -79 50 -91 47 -63 138 -56 181 14 27 43 22
77 -24 171 l-35 71 31 65 c18 36 35 66 39 66 4 0 15 -15 23 -32 8 -18 26 -51
40 -73 14 -22 28 -47 31 -56 11 -33 97 -59 132 -40 21 11 48 -2 37 -18 -3 -7
-25 -23 -48 -38 -95 -60 -144 -112 -145 -153 -2 -74 57 -127 131 -117 22 3 43
10 46 15 9 13 48 32 54 26 10 -10 -3 -50 -41 -130 -22 -43 -53 -110 -71 -149
-18 -38 -39 -82 -47 -97 -16 -30 -21 -88 -10 -107 5 -7 -1 -22 -14 -36 -31
-33 -59 -119 -53 -163 5 -41 30 -100 51 -121 16 -17 11 -33 -14 -46 -10 -6
-48 -30 -83 -55 -79 -56 -78 -56 -120 -71 -130 -48 -179 -216 -95 -326 21 -27
22 -33 9 -45 -29 -26 -42 -35 -65 -48 -60 -32 -115 -90 -118 -125 -4 -52 17
-94 56 -114 45 -23 80 -20 128 9 56 35 62 15 21 -73 l-35 -75 -70 6 c-60 4
-78 1 -114 -18 -75 -38 -118 -104 -122 -189 -2 -20 0 -40 3 -46 15 -27 6 -33
-53 -37 -153 -9 -242 -159 -181 -304 8 -20 23 -43 33 -50 16 -11 15 -14 -7
-33 -13 -12 -28 -21 -32 -21 -4 0 -14 -6 -21 -13 -7 -7 -34 -28 -59 -46 -26
-18 -52 -44 -58 -57 -53 -117 92 -214 187 -126 31 29 48 -3 26 -48 -57 -115
-138 -287 -140 -295 -1 -5 -9 -26 -18 -46 -34 -80 16 -153 106 -153 44 0 54 4
75 30 13 16 39 62 58 101 18 40 38 73 44 73 6 0 31 -39 55 -87 59 -117 104
-144 179 -108 40 19 64 60 61 106 -2 19 -27 86 -57 147 l-54 111 29 61 c17 34
35 59 42 57 6 -2 23 -28 38 -58 54 -107 71 -129 108 -139 63 -17 110 3 136 59
19 41 14 74 -25 156 -142 294 -157 331 -136 329 6 0 31 -10 57 -23 41 -19 53
-20 87 -11 51 14 81 54 81 110 0 35 -6 47 -34 74 -47 43 -64 56 -75 56 -5 0
-11 4 -13 8 -1 4 -17 18 -35 30 l-31 22 48 93 c27 50 55 93 62 94 7 1 31 -36
56 -86 35 -73 48 -91 75 -102 45 -19 56 -20 93 -4 62 25 84 90 55 158 -28 64
-74 163 -119 255 -48 97 -41 106 63 89 16 -3 44 2 62 11 34 16 69 73 59 98 -3
8 -2 14 3 14 4 0 16 -18 26 -41 34 -75 109 -105 168 -65 41 28 58 62 53 107
-3 19 -33 93 -66 165 -34 71 -73 152 -86 180 -29 62 -31 84 -4 84 11 0 20 -4
20 -9 0 -12 60 -34 85 -32 58 5 103 46 107 97 2 15 11 32 20 38 10 6 18 14 18
18 0 16 74 158 81 158 5 0 26 -35 48 -78 l39 -78 -68 -48 c-74 -52 -83 -63
-90 -121 -8 -58 55 -117 123 -113 20 1 37 5 37 8 0 5 44 30 53 30 1 0 2 -15 1
-33 -2 -34 -37 -124 -84 -217 -58 -112 -80 -172 -75 -202 18 -99 118 -128 198
-57 64 58 73 37 30 -64 -20 -45 -40 -83 -44 -85 -5 -2 -9 -9 -9 -16 0 -7 -20
-54 -45 -105 -66 -135 -67 -170 -8 -225 22 -21 37 -26 68 -24 56 3 78 20 115
89 25 47 36 59 48 53 10 -4 29 -9 43 -11 19 -4 32 -16 44 -44 10 -21 22 -39
27 -39 19 0 5 -45 -48 -157 -31 -65 -58 -134 -61 -153 -11 -89 96 -154 172
-104 13 9 39 46 56 82 18 37 40 77 50 90 l17 23 16 -23 c25 -35 19 -52 -23
-76 -37 -21 -71 -71 -71 -106 0 -47 44 -101 91 -111 30 -7 99 10 99 25 0 14
41 19 46 6 3 -7 -8 -41 -24 -77 -50 -110 -112 -242 -132 -279 -22 -43 -26 -67
-17 -103 14 -51 62 -87 116 -87 17 0 31 3 31 8 0 4 10 12 22 17 13 6 39 42 63
90 40 81 53 97 66 89 5 -2 27 -42 49 -89 33 -66 49 -87 75 -99 39 -19 52 -20
93 -5 34 12 72 66 72 104 0 13 -25 76 -55 140 -30 63 -55 117 -55 120 -1 2
-17 36 -36 75 -48 100 -45 133 8 90 53 -41 131 -32 169 21 17 24 20 40 16 75
-6 55 -18 69 -118 135 -77 50 -79 53 -64 73 43 59 64 158 43 199 -5 10 -11 27
-13 38 -5 24 -54 75 -92 94 -24 12 -27 21 -29 67 -3 60 -14 72 -136 155 l-67
45 23 32 c30 41 38 62 43 115 13 146 -132 262 -277 221 -49 -14 -77 12 -46 43
22 21 46 85 46 121 0 20 7 35 20 43 30 20 46 85 29 125 -16 39 -20 44 -79 83
-25 16 -47 32 -50 35 -3 3 -17 13 -32 23 -32 20 -34 29 -13 51 37 36 55 120
41 183 -17 79 -90 145 -173 159 -52 9 -69 7 -126 -15 -27 -10 -28 -9 -51 42
-31 71 -25 84 28 53 22 -13 50 -25 61 -27 85 -11 154 88 114 162 -13 25 -46
59 -57 59 -4 0 -23 13 -42 30 -19 16 -39 29 -43 30 -4 0 -17 9 -29 19 l-20 20
26 28 c14 15 26 38 26 50 0 12 4 24 8 27 13 8 6 97 -11 137 -8 20 -14 50 -12
66 1 16 -6 47 -17 69 -18 37 -18 39 -1 52 10 8 25 19 33 25 9 7 32 47 53 89
20 42 41 79 45 82 12 7 26 -6 43 -45 16 -33 16 -38 -2 -75 -10 -22 -20 -53
-23 -68 -15 -80 75 -151 151 -119 30 12 83 78 83 102 0 5 6 16 13 23 7 7 19
27 28 45 8 17 19 29 25 25 5 -4 26 -40 46 -81 l36 -74 -29 -63 c-27 -61 -29
-78 -13 -127 5 -17 33 -50 48 -58 1 0 19 -2 41 -5 63 -7 94 19 144 120 23 47
46 86 51 86 5 0 28 -39 52 -86 36 -73 54 -95 96 -120 1 0 -7 -22 -18 -48 -29
-69 -25 -108 17 -154 32 -34 113 -33 153 3 9 8 27 39 41 68 13 28 26 54 29 57
3 3 10 14 16 24 20 37 33 27 73 -59 47 -97 80 -126 138 -119 38 5 82 32 83 52
0 6 4 12 8 12 17 0 17 73 0 103 -7 12 -13 24 -13 27 -1 3 -24 52 -51 110 -96
199 -108 230 -96 242 8 8 21 5 49 -13 79 -51 173 -5 176 86 1 46 -19 81 -62
107 -20 12 -38 25 -41 28 -3 4 -26 21 -53 39 l-47 32 27 34 c32 39 37 59 36
144 0 41 -4 66 -11 69 -7 2 -12 10 -12 18 0 8 -4 14 -10 14 -5 0 -10 6 -10 14
0 15 -61 59 -98 70 -67 22 -146 8 -199 -34 -32 -25 -73 -83 -73 -104 0 -23
-18 -29 -41 -13 -17 13 -18 17 -6 24 41 24 69 135 52 211 -9 38 -78 120 -114
134 -46 18 -124 20 -167 4 l-42 -14 0 32 c0 66 -43 137 -110 178 -33 20 -145
34 -167 20 -22 -14 -46 -11 -52 5 -12 31 -55 72 -98 93 -44 21 -124 27 -154
10 -15 -8 -24 2 -58 70 -26 52 -36 80 -27 80 7 0 15 -4 18 -9 7 -11 75 1 103
19 11 8 41 54 65 103 51 104 47 104 112 -18 32 -61 50 -84 75 -96 54 -26 118
-3 146 51 25 48 22 59 -53 220 -22 47 -42 92 -44 100 -5 15 17 70 28 70 8 0
43 -43 44 -54 0 -17 43 -100 63 -122 44 -50 143 -36 178 25 23 41 16 80 -35
184 -25 54 -46 102 -46 107 0 6 -4 10 -9 10 -5 0 -12 11 -15 25 -4 15 -19 52
-34 83 -24 51 -28 65 -23 88 0 3 20 -5 44 -19 45 -26 96 -30 134 -9 45 25 63
94 37 147 -14 28 -150 135 -173 135 -17 0 -13 17 14 59 28 42 36 69 36 121 -1
49 -5 68 -19 82 -7 7 -12 17 -12 23 0 20 -53 68 -97 87 -31 14 -61 18 -107 16
-56 -2 -67 1 -100 25 -33 25 -35 30 -21 44 68 68 69 197 2 278 -78 95 -232
101 -317 12 -23 -24 -24 -24 -55 -7 -38 21 -142 24 -179 5 -14 -8 -26 -10 -26
-5 0 17 -61 79 -93 95 -34 17 -113 26 -159 18z m-93 -362 c3 -5 1 -12 -5 -16
-5 -3 -10 1 -10 9 0 18 6 21 15 7z m343 -395 c6 -31 -16 -43 -27 -15 -5 13 -7
28 -4 32 8 13 28 2 31 -17z m265 10 c15 -12 16 -18 6 -40 -16 -35 -24 -33 -36
8 -14 47 -4 58 30 32z m-680 -72 c31 -15 33 -18 23 -40 -17 -36 -33 -36 -51
-2 -15 30 -20 58 -10 58 2 0 20 -7 38 -16z m537 -303 c0 -34 -3 -40 -20 -38
-23 1 -23 2 -11 25 5 9 12 25 15 35 9 29 16 19 16 -22z m-266 -136 c21 -19 41
-33 46 -30 5 3 7 -3 6 -12 -5 -29 -22 -24 -93 31 -19 14 -21 21 -12 32 15 18
10 20 53 -21z m-412 7 l27 -18 -20 -18 c-23 -19 -49 -15 -49 8 0 8 -3 21 -6
30 -8 21 14 20 48 -2z m944 -127 c-3 -13 -8 -30 -13 -37 -4 -7 -8 -15 -9 -18
0 -3 -14 -33 -31 -66 -29 -62 -38 -66 -72 -38 -2 2 8 19 23 38 14 19 29 50 32
68 9 46 31 78 54 78 16 0 19 -5 16 -25z m-591 -155 c12 -19 77 -40 104 -34 24
6 23 4 -9 -18 -19 -14 -47 -33 -62 -42 l-27 -18 -20 41 c-12 22 -21 49 -21 61
0 21 24 28 35 10z m200 -280 c7 -12 -49 -140 -61 -140 -4 0 -5 3 -1 6 3 3 -3
27 -14 52 -13 29 -16 48 -10 50 6 2 21 12 33 22 26 22 44 25 53 10z m163 -407
c17 -38 47 -94 67 -127 19 -32 35 -61 35 -65 0 -3 -9 -12 -20 -19 -18 -11 -21
-9 -31 15 -33 83 -60 116 -121 147 l-37 19 17 31 c9 17 16 33 17 36 1 13 18
30 29 30 7 0 27 -30 44 -67z m-351 -340 c7 -16 19 -38 28 -50 10 -13 12 -23 6
-27 -8 -5 -61 83 -61 101 0 14 18 -2 27 -24z m-302 -78 c0 -10 -6 -20 -12 -22
-8 -3 -13 5 -13 22 0 17 5 25 13 23 6 -3 12 -13 12 -23z m795 -60 c0 -28 -3
-29 -31 -14 -20 10 -20 11 -2 24 26 20 33 18 33 -10z m302 -97 c6 -17 -1 -38
-13 -38 -5 0 -9 11 -9 25 0 26 14 34 22 13z m-435 -122 l27 -24 -19 -36 -20
-37 -22 47 c-32 70 -17 94 34 50z m-1438 -112 c-8 -10 -16 -11 -32 -2 -20 10
-20 11 -2 24 24 18 52 -1 34 -22z m2206 26 c3 -5 1 -10 -4 -10 -6 0 -11 5 -11
10 0 6 2 10 4 10 3 0 8 -4 11 -10z m264 -4 c9 -10 7 -16 -5 -27 -13 -10 -17
-10 -24 1 -9 14 -3 40 10 40 4 0 13 -6 19 -14z m-2600 -234 c21 -16 21 -19 8
-51 l-15 -34 -15 24 c-9 13 -19 36 -22 52 -9 32 11 37 44 9z m2741 0 c0 -11
-7 -33 -16 -51 -15 -30 -17 -31 -29 -14 -21 30 -21 51 0 67 27 21 45 20 45 -2z
m-1567 -574 c-4 -7 -9 -30 -9 -51 -2 -45 36 -92 82 -102 32 -7 53 -15 99 -36
l30 -14 -70 -142 c-71 -143 -71 -143 -94 -127 -20 14 -21 18 -7 33 8 9 24 36
35 60 22 51 21 133 -3 180 -15 28 -83 95 -105 102 -17 6 27 109 46 109 2 0 1
-6 -4 -12z m1107 -1738 c-18 -11 -24 -6 -16 16 5 14 9 15 19 5 9 -9 9 -14 -3
-21z"/>
</g>
</svg>
